<svg xmlns="http://www.w3.org/2000/svg" viewBox="0 0 480 270" preserveAspectRatio="xMidYMid slice">
  <defs>
    <linearGradient id="g" x1="0" y1="0" x2="1" y2="1">
      <stop offset="0%" stop-color="#7F1A26"/>
      <stop offset="100%" stop-color="#2A090D"/>
    </linearGradient>
  </defs>
  <rect width="480" height="270" fill="url(#g)"/>
  <path d="M240 250 C160 250 90 200 100 140 C108 90 170 60 230 70 C300 82 360 60 400 100 C440 140 400 220 320 240 C290 248 265 250 240 250 Z" fill="#F6D5D9" opacity="0.55"/>
  <circle cx="420" cy="40" r="70" fill="#F6D5D9" opacity="0.18"/>
  <g opacity="0.16" stroke="#ffffff" stroke-width="1.4">
    <path d="M20 230 L120 190 L200 220 L300 160 L380 200 L460 150"/>
    <circle cx="120" cy="190" r="3" fill="#ffffff" stroke="none"/>
    <circle cx="300" cy="160" r="3" fill="#ffffff" stroke="none"/>
    <circle cx="380" cy="200" r="3" fill="#ffffff" stroke="none"/>
  </g>
</svg>
