<svg xmlns="http://www.w3.org/2000/svg" viewBox="0 0 480 270" preserveAspectRatio="xMidYMid slice">
  <defs>
    <linearGradient id="g" x1="0" y1="0" x2="1" y2="1">
      <stop offset="0%" stop-color="#633639"/>
      <stop offset="100%" stop-color="#211213"/>
    </linearGradient>
  </defs>
  <rect width="480" height="270" fill="url(#g)"/>
  <path d="M240 30 C310 30 380 70 400 130 C420 190 370 240 300 245 C230 250 150 230 110 180 C70 130 100 60 170 40 C193 33 217 30 240 30 Z" fill="#DBBDBF" opacity="0.55"/>
  <circle cx="420" cy="40" r="70" fill="#DBBDBF" opacity="0.18"/>
  <g opacity="0.16" stroke="#ffffff" stroke-width="1.4">
    <path d="M20 230 L120 190 L200 220 L300 160 L380 200 L460 150"/>
    <circle cx="120" cy="190" r="3" fill="#ffffff" stroke="none"/>
    <circle cx="300" cy="160" r="3" fill="#ffffff" stroke="none"/>
    <circle cx="380" cy="200" r="3" fill="#ffffff" stroke="none"/>
  </g>
</svg>
